<?xml version="1.0" standalone="no"?>
<!DOCTYPE svg PUBLIC "-//W3C//DTD SVG 20010904//EN"
 "http://www.w3.org/TR/2001/REC-SVG-20010904/DTD/svg10.dtd">
<svg version="1.0" xmlns="http://www.w3.org/2000/svg"
 width="30.000000pt" height="30.000000pt" viewBox="0 0 512.000000 512.000000"
 preserveAspectRatio="xMidYMid meet">

<g transform="translate(0.000000,512.000000) scale(0.100000,-0.100000)"
fill="#000000" stroke="none">
<path d="M2488 4489 c-23 -12 -46 -35 -58 -59 -19 -37 -20 -58 -20 -370 0
-312 1 -333 20 -370 23 -45 80 -80 130 -80 50 0 107 35 130 80 19 37 20 58 20
370 0 312 -1 333 -20 370 -37 73 -127 99 -202 59z"/>
<path d="M688 3889 c-43 -22 -78 -81 -78 -131 0 -18 10 -51 23 -73 21 -38 41
-50 355 -207 240 -121 343 -168 368 -168 53 0 111 34 134 80 26 51 25 95 -3
145 -21 38 -41 50 -355 208 -360 180 -372 184 -444 146z"/>
<path d="M3988 3743 c-314 -158 -334 -170 -355 -208 -28 -50 -29 -94 -3 -145
23 -46 81 -80 134 -80 25 0 128 47 368 168 314 157 334 169 355 207 28 50 29
94 3 145 -23 46 -81 80 -134 80 -25 0 -128 -47 -368 -167z"/>
<path d="M2395 3304 c-483 -51 -986 -250 -1543 -611 -307 -199 -775 -572 -829
-661 -29 -47 -29 -97 0 -144 26 -43 162 -164 361 -322 654 -519 1292 -837
1871 -932 152 -25 458 -25 610 0 647 106 1407 513 2111 1130 109 96 144 143
144 196 0 53 -35 100 -144 196 -694 608 -1446 1014 -2081 1124 -116 21 -403
34 -500 24z m308 -305 c415 -62 750 -354 865 -754 160 -552 -165 -1132 -723
-1293 -552 -160 -1132 165 -1293 723 -190 657 309 1325 996 1334 46 1 116 -4
155 -10z m-1344 -426 c-101 -199 -143 -379 -143 -613 0 -234 42 -414 143 -613
27 -53 47 -97 44 -97 -12 0 -292 166 -410 243 -194 128 -613 447 -613 467 0
20 419 339 610 465 137 89 396 244 412 245 3 0 -16 -44 -43 -97z m2504 16
c155 -89 358 -222 506 -331 131 -97 371 -290 371 -298 0 -14 -348 -285 -515
-402 -140 -97 -488 -308 -509 -308 -2 0 18 44 45 97 101 199 143 379 143 613
0 234 -42 414 -143 613 -27 53 -47 97 -44 97 3 0 68 -36 146 -81z"/>
<path d="M2465 2704 c-11 -2 -45 -9 -75 -15 -217 -44 -429 -224 -522 -444 -41
-97 -53 -162 -53 -285 0 -123 12 -188 53 -285 93 -219 290 -387 522 -446 71
-18 269 -18 340 0 232 59 429 227 522 446 41 97 53 162 53 285 0 65 -6 139
-14 170 -68 269 -277 482 -546 557 -51 14 -243 26 -280 17z m176 -304 c235
-45 399 -275 361 -506 -32 -196 -180 -344 -376 -376 -289 -48 -556 219 -508
508 42 252 277 420 523 374z"/>
<path d="M2488 2089 c-43 -22 -78 -81 -78 -129 0 -50 35 -107 80 -130 21 -11
53 -20 70 -20 76 0 150 74 150 150 0 50 -35 107 -80 130 -49 25 -94 25 -142
-1z"/>
</g>
</svg>
